<svg width="65" height="48" viewBox="0 0 65 48" fill="none" xmlns="http://www.w3.org/2000/svg">
<path d="M36.25 5V32.5C36.2541 36.477 37.8358 40.2899 40.648 43.102C43.4601 45.9142 47.273 47.4959 51.25 47.5C51.913 47.5 52.5489 47.2366 53.0178 46.7678C53.4866 46.2989 53.75 45.663 53.75 45C53.75 44.337 53.4866 43.7011 53.0178 43.2322C52.5489 42.7634 51.913 42.5 51.25 42.5C48.5978 42.5 46.0543 41.4464 44.1789 39.5711C42.3036 37.6957 41.25 35.1522 41.25 32.5V30H60C61.3261 30 62.5979 29.4732 63.5355 28.5355C64.4732 27.5979 65 26.3261 65 25V5C65 3.67392 64.4732 2.40215 63.5355 1.46447C62.5979 0.526784 61.3261 0 60 0H41.25C39.9239 0 38.6521 0.526784 37.7145 1.46447C36.7768 2.40215 36.25 3.67392 36.25 5ZM5 0H23.75C25.0761 0 26.3479 0.526784 27.2855 1.46447C28.2232 2.40215 28.75 3.67392 28.75 5V25C28.75 26.3261 28.2232 27.5979 27.2855 28.5355C26.3479 29.4732 25.0761 30 23.75 30H5V32.5C5 35.1522 6.05357 37.6957 7.92893 39.5711C9.8043 41.4464 12.3478 42.5 15 42.5C15.663 42.5 16.2989 42.7634 16.7678 43.2322C17.2366 43.7011 17.5 44.337 17.5 45C17.5 45.663 17.2366 46.2989 16.7678 46.7678C16.2989 47.2366 15.663 47.5 15 47.5C11.023 47.4959 7.21011 45.9142 4.39796 43.102C1.58582 40.2899 0.00413513 36.477 0 32.5V5C0 3.67392 0.526787 2.40215 1.46447 1.46447C2.40215 0.526784 3.67392 0 5 0Z" fill="black"/>
</svg>
