<svg width="297" height="568" viewBox="0 0 297 568" fill="none" xmlns="http://www.w3.org/2000/svg">
<path d="M461.496 509.139L72.9873 6.38946L6.75488 57.5717L395.264 560.322L461.496 509.139Z" stroke="#39DF18" stroke-width="1.53" stroke-miterlimit="10" stroke-linecap="round" stroke-linejoin="round"/>
<path d="M38.625 98.8166L71.7412 73.2254" stroke="#39DF18" stroke-width="1.53" stroke-miterlimit="10" stroke-linecap="round" stroke-linejoin="round"/>
<path d="M52.302 116.516L68.8566 103.723" stroke="#39DF18" stroke-width="1.53" stroke-miterlimit="10" stroke-linecap="round" stroke-linejoin="round"/>
<path d="M65.9792 134.214L99.0955 108.623" stroke="#39DF18" stroke-width="1.53" stroke-miterlimit="10" stroke-linecap="round" stroke-linejoin="round"/>
<path d="M79.646 151.9L96.2006 139.107" stroke="#39DF18" stroke-width="1.53" stroke-miterlimit="10" stroke-linecap="round" stroke-linejoin="round"/>
<path d="M93.3232 169.599L126.439 144.008" stroke="#39DF18" stroke-width="1.53" stroke-miterlimit="10" stroke-linecap="round" stroke-linejoin="round"/>
<path d="M107 187.298L123.555 174.505" stroke="#39DF18" stroke-width="1.53" stroke-miterlimit="10" stroke-linecap="round" stroke-linejoin="round"/>
<path d="M120.677 204.997L153.794 179.406" stroke="#39DF18" stroke-width="1.53" stroke-miterlimit="10" stroke-linecap="round" stroke-linejoin="round"/>
<path d="M134.355 222.696L150.909 209.903" stroke="#39DF18" stroke-width="1.53" stroke-miterlimit="10" stroke-linecap="round" stroke-linejoin="round"/>
<path d="M148.032 240.395L181.148 214.803" stroke="#39DF18" stroke-width="1.53" stroke-miterlimit="10" stroke-linecap="round" stroke-linejoin="round"/>
<path d="M161.709 258.094L178.264 245.301" stroke="#39DF18" stroke-width="1.53" stroke-miterlimit="10" stroke-linecap="round" stroke-linejoin="round"/>
<path d="M175.386 275.792L208.502 250.201" stroke="#39DF18" stroke-width="1.53" stroke-miterlimit="10" stroke-linecap="round" stroke-linejoin="round"/>
<path d="M189.063 293.491L205.618 280.698" stroke="#39DF18" stroke-width="1.53" stroke-miterlimit="10" stroke-linecap="round" stroke-linejoin="round"/>
<path d="M202.74 311.19L235.857 285.599" stroke="#39DF18" stroke-width="1.53" stroke-miterlimit="10" stroke-linecap="round" stroke-linejoin="round"/>
<path d="M216.418 328.889L232.972 316.096" stroke="#39DF18" stroke-width="1.53" stroke-miterlimit="10" stroke-linecap="round" stroke-linejoin="round"/>
<path d="M230.095 346.588L263.211 320.997" stroke="#39DF18" stroke-width="1.53" stroke-miterlimit="10" stroke-linecap="round" stroke-linejoin="round"/>
<path d="M243.772 364.287L260.327 351.494" stroke="#39DF18" stroke-width="1.53" stroke-miterlimit="10" stroke-linecap="round" stroke-linejoin="round"/>
<path d="M257.449 381.986L290.565 356.395" stroke="#39DF18" stroke-width="1.53" stroke-miterlimit="10" stroke-linecap="round" stroke-linejoin="round"/>
<path d="M271.126 399.685L287.681 386.892" stroke="#39DF18" stroke-width="1.53" stroke-miterlimit="10" stroke-linecap="round" stroke-linejoin="round"/>
<path d="M284.803 417.384L317.92 391.793" stroke="#39DF18" stroke-width="1.53" stroke-miterlimit="10" stroke-linecap="round" stroke-linejoin="round"/>
</svg>
