<svg width="305" height="345" viewBox="0 0 305 345" fill="none" xmlns="http://www.w3.org/2000/svg">
<g opacity="0.3">
<path d="M13.523 140.305C16.7406 145.196 15.377 151.784 10.4823 154.997C5.59558 158.212 -0.986031 156.858 -4.20677 151.951C-7.42437 147.059 -6.06643 140.479 -1.16851 137.271C3.72947 134.052 10.3078 135.412 13.523 140.305Z" fill="black"/>
<path d="M132.053 61.3312C135.274 66.2276 133.918 72.8004 129.014 76.0155C124.123 79.2396 117.545 77.88 114.325 72.9796C111.106 68.0857 112.467 61.4993 117.359 58.2881C122.261 55.0641 128.836 56.4292 132.053 61.3312Z" fill="black"/>
<path d="M243.278 56.8822C253.374 128.536 222.59 202.924 158.107 245.317C89.9645 290.116 3.90758 286.174 -59.0129 241.986" stroke="black" stroke-width="5.78551" stroke-linecap="round" stroke-linejoin="round"/>
</g>
</svg>
