<svg width="137" height="498" viewBox="0 0 137 498" fill="none" xmlns="http://www.w3.org/2000/svg">
<g opacity="0.7">
<path d="M102.071 76.4907C102.071 57.8066 86.9313 42.6562 68.2457 42.6562C49.5615 42.6562 34.4126 57.8066 34.4126 76.4907" stroke="black" stroke-width="2.2337" stroke-miterlimit="10" stroke-linecap="round" stroke-linejoin="round"/>
<path d="M68.5129 53.4267C55.626 53.4267 45.1797 63.8789 45.1797 76.7539" stroke="black" stroke-width="2.2337" stroke-miterlimit="10" stroke-linecap="round" stroke-linejoin="round"/>
<path d="M34.4126 76.4906V131.903H102.071V76.4906" stroke="black" stroke-width="2.2337" stroke-miterlimit="10" stroke-linecap="round" stroke-linejoin="round"/>
<path d="M25.2859 142.415C25.2859 144.625 27.0937 146.435 29.305 146.435H107.188C109.398 146.435 111.207 144.625 111.207 142.415V135.921C111.207 133.71 109.398 131.902 107.188 131.902H29.305C27.0937 131.902 25.2859 133.71 25.2859 135.921V142.415Z" stroke="black" stroke-width="2.2337" stroke-miterlimit="10" stroke-linecap="round" stroke-linejoin="round"/>
<path d="M78.7957 146.435V494.675" stroke="black" stroke-width="2.2337" stroke-miterlimit="10" stroke-linecap="round" stroke-linejoin="round"/>
<path d="M78.7957 109.073V131.903" stroke="black" stroke-width="2.2337" stroke-miterlimit="10" stroke-linecap="round" stroke-linejoin="round"/>
<path d="M57.244 131.903V102.43H78.7977L57.244 118.205" stroke="black" stroke-width="2.2337" stroke-miterlimit="10" stroke-linecap="round" stroke-linejoin="round"/>
<path d="M57.244 494.673V146.434" stroke="black" stroke-width="2.2337" stroke-miterlimit="10" stroke-linecap="round" stroke-linejoin="round"/>
</g>
</svg>
