<svg width="296" height="177" viewBox="0 0 296 177" fill="none" xmlns="http://www.w3.org/2000/svg">
<path d="M-39.3539 130.768L-39.4829 17.0577C-39.4829 17.0577 -39.5031 2.96853 -24.9312 2.966C-18.3345 2.95335 157.042 2.96853 161.987 2.966C168.311 2.95335 180.285 2.73084 189.06 12.0613C199.463 23.1086 227.595 56.5211 227.595 56.5211L264.724 77.4172C264.724 77.4172 288.653 89.0335 288.67 109.993C288.678 122.661 288.691 130.396 288.691 130.396" stroke="black" stroke-width="1.5" stroke-miterlimit="10" stroke-linecap="round" stroke-linejoin="round"/>
<path d="M260.348 130.42L289.595 130.39C291.67 130.39 292.97 132.039 292.479 134.054L289.606 145.88C289.115 147.898 287.013 149.549 284.939 149.551L246.251 149.602" stroke="black" stroke-width="1.5" stroke-miterlimit="10" stroke-linecap="round" stroke-linejoin="round"/>
<path d="M71.584 130.642H168.526" stroke="black" stroke-width="1.5" stroke-miterlimit="10" stroke-linecap="round" stroke-linejoin="round"/>
<path d="M183.15 149.668L75.7162 149.797C68.8943 149.804 61.9081 149.814 60.1906 149.814C58.4732 149.819 57.0693 149.819 57.0693 149.819" stroke="black" stroke-width="1.5" stroke-miterlimit="10" stroke-linecap="round" stroke-linejoin="round"/>
<path d="M-19.7715 130.745C-14.6241 110.322 3.85828 95.201 25.8819 95.1757C48.0876 95.1479 66.5675 109.993 71.5808 130.641" stroke="black" stroke-width="1.5" stroke-miterlimit="10" stroke-linecap="round" stroke-linejoin="round"/>
<path d="M168.521 130.642C173.669 110.231 192.149 94.9786 214.18 94.9584C236.381 94.9306 255.316 109.766 260.349 130.419" stroke="black" stroke-width="1.5" stroke-miterlimit="10" stroke-linecap="round" stroke-linejoin="round"/>
<path d="M246.258 142.038C246.281 159.726 231.954 174.065 214.276 174.088C196.585 174.118 182.241 159.791 182.216 142.124C182.191 124.437 196.507 110.092 214.2 110.072C231.878 110.052 246.23 124.361 246.258 142.038Z" stroke="black" stroke-width="1.5" stroke-miterlimit="10" stroke-linecap="round" stroke-linejoin="round"/>
<path d="M230.683 142.063C230.69 151.138 223.337 158.509 214.252 158.516C205.171 158.531 197.795 151.178 197.788 142.101C197.775 133.013 205.13 125.652 214.214 125.629C223.299 125.629 230.672 132.978 230.683 142.063Z" stroke="black" stroke-width="1.5" stroke-miterlimit="10" stroke-linecap="round" stroke-linejoin="round"/>
<path d="M-24.5635 55.8474C-24.5635 58.515 -22.3806 60.6997 -19.7095 60.6997H101.781C104.452 60.6997 106.635 58.515 106.635 55.8474V21.8988C106.635 19.2337 104.452 17.0464 101.781 17.0464H-19.7095C-22.3806 17.0464 -24.5635 19.2337 -24.5635 21.8988V55.8474Z" stroke="black" stroke-width="1.5" stroke-miterlimit="10" stroke-linecap="round" stroke-linejoin="round"/>
<path d="M121.421 55.1433C121.421 58.1093 123.847 60.5342 126.814 60.5342H203.051C206.018 60.5342 206.852 58.701 204.91 56.4607L174.076 20.9443C172.134 18.704 168.114 16.8708 165.15 16.8708H126.814C123.847 16.8708 121.421 19.2957 121.421 22.2617V55.1433Z" stroke="black" stroke-width="1.5" stroke-miterlimit="10" stroke-linecap="round" stroke-linejoin="round"/>
<path d="M57.9405 142.258C57.9658 159.927 43.6417 174.285 25.956 174.312C8.27546 174.328 -6.07642 160.016 -6.09666 142.341C-6.11689 124.656 8.20717 110.299 25.8827 110.287C43.5709 110.271 57.9303 124.588 57.9405 142.258Z" stroke="black" stroke-width="1.5" stroke-miterlimit="10" stroke-linecap="round" stroke-linejoin="round"/>
<path d="M42.3724 142.277C42.385 151.36 35.0295 158.723 25.9489 158.743C16.8658 158.753 9.49004 151.398 9.47486 142.312C9.46475 133.24 16.8228 125.867 25.9059 125.854C34.9916 125.846 42.3648 133.189 42.3724 142.277Z" stroke="black" stroke-width="1.5" stroke-miterlimit="10" stroke-linecap="round" stroke-linejoin="round"/>
<path d="M71.6035 140.355L168.531 140.239" stroke="black" stroke-width="1.5" stroke-miterlimit="10" stroke-linecap="round" stroke-linejoin="round"/>
<path d="M259.966 140.355L290.41 140.312" stroke="black" stroke-width="1.5" stroke-miterlimit="10" stroke-linecap="round" stroke-linejoin="round"/>
<path d="M115.098 75.2304V110.941" stroke="black" stroke-width="1.5" stroke-miterlimit="10" stroke-linecap="round" stroke-linejoin="round"/>
<path d="M287.487 103.279H268.886L268.868 80.5293" stroke="black" stroke-width="1.5" stroke-miterlimit="10" stroke-linecap="round" stroke-linejoin="round"/>
</svg>
