<svg width="174" height="154" viewBox="0 0 174 154" fill="none" xmlns="http://www.w3.org/2000/svg">
<g clip-path="url(#clip0_99_2296)">
<path d="M19.6628 -185.624C19.3856 -185.624 19.1173 -185.642 18.8349 -185.676C14.028 -186.315 9.11212 -186.747 4.2308 -186.951C0.810135 -187.093 -1.85756 -189.989 -1.71034 -193.417C-1.56667 -196.838 1.31033 -199.447 4.7576 -199.358C10.0025 -199.137 15.2945 -198.674 20.4734 -197.983C23.8736 -197.538 26.2606 -194.413 25.8088 -191.011C25.3999 -187.893 22.7305 -185.624 19.6628 -185.624ZM-34.9178 -184.044C-37.8365 -184.044 -40.4346 -186.111 -41.0062 -189.094C-41.6474 -192.459 -39.4369 -195.705 -36.0677 -196.352C-32.5934 -197.013 -29.0268 -197.578 -25.4687 -198.045C-23.8005 -198.262 -22.1256 -198.452 -20.4557 -198.622C-17.0732 -198.974 -14.0019 -196.473 -13.664 -193.062C-13.3141 -189.648 -15.812 -186.604 -19.2278 -186.263C-20.771 -186.107 -22.3212 -185.933 -23.8701 -185.725C-27.187 -185.302 -30.5074 -184.767 -33.745 -184.155C-34.1365 -184.075 -34.5316 -184.044 -34.9178 -184.044ZM57.9543 -175.879C57.2111 -175.879 56.4661 -176.012 55.7282 -176.294C51.171 -178.044 46.4852 -179.603 41.8154 -180.925C38.5176 -181.858 36.5984 -185.293 37.5283 -188.593C38.4688 -191.893 41.897 -193.802 45.2055 -192.87C50.2287 -191.443 55.2693 -189.773 60.1816 -187.888C63.3775 -186.66 64.9783 -183.069 63.7464 -179.87C62.8059 -177.398 60.4468 -175.879 57.9543 -175.879ZM-72.5734 -172.19C-74.9463 -172.19 -77.214 -173.556 -78.2445 -175.858C-79.6493 -178.988 -78.2463 -182.659 -75.1196 -184.058C-70.3301 -186.211 -65.3916 -188.165 -60.4393 -189.868C-57.2071 -190.985 -53.672 -189.257 -52.5581 -186.011C-51.4424 -182.773 -53.1661 -179.241 -56.4018 -178.122C-61.0024 -176.541 -65.5876 -174.732 -70.041 -172.735C-70.8706 -172.361 -71.7247 -172.19 -72.5734 -172.19ZM-106.481 -151.925C-108.343 -151.925 -110.178 -152.756 -111.409 -154.346C-113.496 -157.062 -112.985 -160.958 -110.267 -163.054C-106.124 -166.24 -101.771 -169.285 -97.3468 -172.098C-94.449 -173.946 -90.6155 -173.087 -88.7708 -170.192C-86.9332 -167.298 -87.7886 -163.461 -90.6846 -161.623C-94.7988 -159.006 -98.8452 -156.174 -102.697 -153.205C-103.83 -152.341 -105.157 -151.925 -106.481 -151.925ZM-134.803 -124.383C-136.18 -124.383 -137.566 -124.842 -138.718 -125.776C-141.375 -127.943 -141.772 -131.849 -139.608 -134.511C-136.307 -138.571 -132.776 -142.533 -129.113 -146.287C-126.724 -148.743 -122.789 -148.793 -120.339 -146.398C-117.883 -144.009 -117.833 -140.079 -120.22 -137.623C-123.627 -134.129 -126.91 -130.446 -129.979 -126.67C-131.205 -125.161 -132.998 -124.383 -134.803 -124.383ZM-156.046 -91.0805C-156.958 -91.0805 -157.881 -91.2783 -158.75 -91.7044C-161.839 -93.201 -163.124 -96.9183 -161.626 -99.9944C-159.339 -104.706 -156.816 -109.372 -154.11 -113.873C-152.348 -116.81 -148.531 -117.76 -145.595 -115.993C-142.653 -114.226 -141.702 -110.412 -143.466 -107.477C-145.981 -103.294 -148.331 -98.9532 -150.452 -94.5743C-151.525 -92.3625 -153.741 -91.0805 -156.046 -91.0805ZM160.975 -63.1512C158.264 -63.1512 155.772 -64.9493 155.002 -67.688C153.682 -72.3751 152.134 -77.0693 150.395 -81.6074C149.18 -84.8121 150.788 -88.4026 153.994 -89.6207C157.209 -90.8401 160.784 -89.2309 162.005 -86.0245C163.869 -81.1382 165.536 -76.0973 166.951 -71.0466C167.877 -67.7465 165.956 -64.3134 162.651 -63.3867C162.094 -63.2292 161.531 -63.1512 160.975 -63.1512ZM-169.039 -53.7734C-169.483 -53.7734 -169.942 -53.8165 -170.389 -53.9207C-173.737 -54.6652 -175.852 -57.9772 -175.105 -61.3256C-173.973 -66.4424 -172.585 -71.5627 -170.995 -76.5567C-169.952 -79.8301 -166.459 -81.6353 -163.192 -80.5871C-159.928 -79.5512 -158.13 -76.056 -159.164 -72.7906C-160.645 -68.1487 -161.927 -63.3867 -162.984 -58.6322C-163.626 -55.7427 -166.192 -53.7734 -169.039 -53.7734ZM167.244 -23.5228C163.937 -23.5228 161.181 -26.1417 161.047 -29.4848C160.855 -34.3386 160.438 -39.2629 159.809 -44.1114L159.731 -44.7105C159.284 -48.1072 161.667 -51.2303 165.069 -51.6756C168.458 -52.1363 171.593 -49.7338 172.035 -46.3335L172.12 -45.6737C172.791 -40.4877 173.247 -35.2028 173.457 -29.9854C173.594 -26.5559 170.928 -23.6682 167.498 -23.5299C167.417 -23.5299 167.328 -23.5228 167.244 -23.5228ZM-173.044 -14.4585C-176.432 -14.4585 -179.2 -17.1777 -179.249 -20.5677C-179.266 -21.4892 -179.275 -22.3987 -179.266 -23.3112C-179.266 -27.6316 -179.11 -32.0225 -178.792 -36.346C-178.539 -39.7565 -175.596 -42.3324 -172.137 -42.0779C-168.715 -41.818 -166.15 -38.8386 -166.407 -35.4246C-166.699 -31.4075 -166.859 -27.3319 -166.859 -23.3081C-166.859 -22.4505 -166.848 -21.6071 -166.841 -20.7633C-166.779 -17.3355 -169.523 -14.517 -172.949 -14.4585H-173.044ZM164.242 15.8613C163.845 15.8613 163.443 15.8183 163.041 15.7421C159.674 15.084 157.481 11.8168 158.144 8.45465C159.076 3.67754 159.809 -1.19849 160.311 -6.04877C160.663 -9.45213 163.718 -11.9726 167.122 -11.5828C170.531 -11.2294 173.012 -8.17726 172.657 -4.7668C172.12 0.453751 171.333 5.7058 170.329 10.847C169.75 13.8038 167.152 15.8613 164.242 15.8613ZM-167.908 24.7114C-170.685 24.7114 -173.219 22.8335 -173.922 20.0101C-175.19 14.9452 -176.257 9.75037 -177.075 4.55908C-177.608 1.17256 -175.303 -2.0042 -171.91 -2.53589C-168.525 -3.08485 -165.35 -0.765686 -164.813 2.62082C-164.051 7.44495 -163.06 12.2793 -161.88 16.9943C-161.044 20.3201 -163.063 23.6946 -166.393 24.5243C-166.898 24.6471 -167.409 24.7114 -167.908 24.7114ZM152.16 53.4859C151.301 53.4859 150.428 53.3005 149.596 52.9298C146.477 51.5095 145.098 47.8286 146.511 44.7037C148.532 40.2693 150.374 35.6931 151.985 31.0907C153.126 27.8585 156.663 26.1628 159.899 27.2957C163.131 28.4234 164.834 31.9691 163.701 35.2031C161.965 40.15 159.987 45.0744 157.81 49.8466C156.774 52.133 154.521 53.4859 152.16 53.4859ZM-153.9 61.6447C-156.14 61.6447 -158.309 60.4252 -159.409 58.298C-161.83 53.6438 -164.066 48.8281 -166.051 43.9818C-167.351 40.8134 -165.835 37.1843 -162.663 35.8838C-159.493 34.588 -155.866 36.093 -154.565 39.2703C-152.714 43.7756 -150.642 48.2463 -148.389 52.5662C-146.811 55.6148 -147.999 59.3579 -151.037 60.9445C-151.95 61.4141 -152.935 61.6447 -153.9 61.6447ZM131.752 87.296C130.43 87.296 129.086 86.8788 127.953 86.0056C125.24 83.91 124.745 80.0055 126.844 77.2997C129.841 73.432 132.675 69.3977 135.297 65.3114C137.149 62.4207 140.984 61.5733 143.878 63.4268C146.76 65.2786 147.603 69.117 145.759 72.0028C142.939 76.3973 139.877 80.7381 136.666 84.8899C135.441 86.477 133.602 87.296 131.752 87.296ZM-131.729 94.3183C-133.468 94.3183 -135.202 93.5875 -136.426 92.1636C-139.861 88.1966 -143.144 84.0328 -146.199 79.7803C-148.198 76.9897 -147.569 73.1132 -144.779 71.1178C-142 69.117 -138.118 69.7458 -136.12 72.5279C-133.277 76.4855 -130.222 80.3625 -127.033 84.043C-124.79 86.6446 -125.077 90.5628 -127.675 92.8026C-128.843 93.8265 -130.293 94.3183 -131.729 94.3183ZM104.142 115.543C102.331 115.543 100.534 114.758 99.3094 113.239C97.153 110.576 97.5672 106.665 100.236 104.509C104.012 101.446 107.709 98.1739 111.209 94.7825C113.667 92.392 117.594 92.4598 119.981 94.9107C122.372 97.3757 122.311 101.309 119.848 103.695C116.086 107.344 112.121 110.862 108.04 114.157C106.897 115.09 105.513 115.543 104.142 115.543ZM-102.626 121.016C-103.887 121.016 -105.157 120.635 -106.257 119.838C-110.506 116.759 -114.665 113.462 -118.616 110.024C-121.209 107.772 -121.474 103.856 -119.226 101.266C-116.977 98.6746 -113.054 98.4027 -110.473 100.651C-106.801 103.847 -102.928 106.92 -98.98 109.778C-96.2036 111.787 -95.5815 115.672 -97.5894 118.449C-98.807 120.124 -100.709 121.016 -102.626 121.016ZM70.7584 136.656C68.4495 136.656 66.227 135.353 65.1601 133.122C63.6825 130.037 64.9867 126.325 68.0788 124.841C72.4679 122.736 76.8175 120.407 80.9991 117.921C83.9471 116.17 87.7509 117.131 89.5126 120.077C91.2655 123.022 90.2971 126.833 87.3474 128.589C82.8487 131.265 78.1704 133.777 73.4417 136.038C72.5823 136.457 71.6661 136.656 70.7584 136.656ZM-68.163 140.328C-68.9515 140.328 -69.7674 140.181 -70.5483 139.852C-75.3968 137.834 -80.2018 135.572 -84.8269 133.133C-87.8648 131.537 -89.0324 127.784 -87.4267 124.754C-85.8312 121.72 -82.0638 120.561 -79.048 122.149C-74.7454 124.416 -70.2782 126.512 -65.7765 128.39C-62.6064 129.708 -61.108 133.341 -62.4299 136.509C-63.4187 138.896 -65.7348 140.328 -68.163 140.328ZM33.3866 149.45C30.534 149.45 27.9617 147.463 27.3275 144.553C26.6003 141.205 28.7275 137.891 32.0754 137.176C36.8512 136.138 41.6265 134.872 46.2622 133.427C49.5339 132.419 53.0122 134.233 54.0396 137.505C55.0595 140.777 53.2321 144.258 49.9587 145.277C44.9714 146.834 39.8444 148.189 34.7121 149.301C34.2651 149.396 33.8234 149.45 33.3866 149.45ZM-30.1545 151.173C-30.4919 151.173 -30.821 151.146 -31.1571 151.094C-36.3346 150.248 -41.533 149.164 -46.6081 147.868C-49.9303 147.016 -51.9347 143.63 -51.0771 140.311C-50.2319 136.985 -46.8418 134.981 -43.5267 135.837C-38.8134 137.044 -33.9822 138.057 -29.1758 138.835C-25.7875 139.375 -23.4888 142.571 -24.0382 145.954C-24.5299 149.006 -27.1697 151.173 -30.1545 151.173ZM-3.04419 153.354C-4.03661 153.354 -5.02724 153.342 -6.02185 153.326C-9.44429 153.274 -12.1829 150.451 -12.1311 147.021C-12.0739 143.595 -9.20351 140.983 -5.8241 140.91C-0.932571 140.995 4.00598 140.853 8.84872 140.507C12.2667 140.281 15.2422 142.833 15.4901 146.249C15.741 149.67 13.1673 152.646 9.74979 152.888C5.52162 153.198 1.22563 153.354 -3.04419 153.354Z" fill="black"/>
<path d="M-2.83645 55.5575C-46.2722 55.5575 -81.4752 20.351 -81.4752 -23.0848C-81.4752 -66.517 -46.2722 -101.72 -2.83645 -101.72C40.5909 -101.72 75.8005 -66.517 75.8005 -23.0848C75.8005 20.351 40.5909 55.5575 -2.83645 55.5575ZM-2.83645 -129.985C-61.8758 -129.985 -109.744 -82.1254 -109.744 -23.0848C-109.744 35.9581 -61.8758 83.83 -2.83645 83.83C56.2029 83.83 104.062 35.9581 104.062 -23.0848C104.062 -82.1254 56.2029 -129.985 -2.83645 -129.985Z" fill="black"/>
</g>
<defs>
<clipPath id="clip0_99_2296">
<rect width="354" height="354" fill="white" transform="translate(-180 -200)"/>
</clipPath>
</defs>
</svg>
