<svg width="236" height="88" viewBox="0 0 236 88" fill="none" xmlns="http://www.w3.org/2000/svg">
<g clip-path="url(#clip0_204_2072)">
<path d="M135.047 25.9584V37.5674H128.257V27.0488C128.257 24.1585 126.832 22.7742 124.613 22.7742C123.563 22.7742 122.516 23.2362 121.511 24.4506C121.553 24.9545 121.596 25.4558 121.596 25.9584V37.5674H114.807V27.0488C114.807 24.1585 113.38 22.7742 111.159 22.7742C110.155 22.7742 109.107 23.2777 108.144 24.5344V37.5674H101.312V17.2428H108.144V18.4158C109.484 17.2428 110.909 16.6148 113.128 16.6148C115.684 16.6148 117.865 17.5777 119.414 19.3812C121.553 17.4537 123.607 16.6148 126.622 16.6148C131.482 16.6148 135.047 20.1769 135.047 25.9584Z" fill="white"/>
<path d="M159.906 37.5674H153.117V36.2255C151.482 37.481 149.724 38.1936 147.545 38.1936C142.39 38.1936 138.87 34.6322 138.87 28.8501V17.2437H145.66V27.8021C145.66 30.6942 147.168 32.0776 149.389 32.0776C150.645 32.0776 151.944 31.365 153.117 30.0654V17.2437H159.906V37.5674Z" fill="white"/>
<path d="M185.141 25.9584V37.5674H178.351V27.0488C178.351 24.1585 176.884 22.7742 174.625 22.7742C173.409 22.7742 172.108 23.4445 170.935 24.786V37.5674H164.104V17.2428H170.935V18.5825C172.57 17.3262 174.332 16.6148 176.508 16.6148C181.619 16.6148 185.141 20.1769 185.141 25.9584Z" fill="white"/>
<path d="M203.63 30.6117V24.2838C202.333 22.8585 200.906 22.3978 199.442 22.3978C196.676 22.3978 194.621 24.6607 194.621 27.4248C194.621 30.2759 196.676 32.4959 199.442 32.4959C200.906 32.4959 202.333 32.0772 203.63 30.6117ZM210.42 37.567H203.63V36.5187C202.125 37.4811 200.321 38.0692 198.058 38.0692C192.569 38.0692 187.96 33.5007 187.96 27.4248C187.96 21.3896 192.569 16.8665 198.058 16.8665C200.321 16.8665 202.125 17.4537 203.63 18.417V7.81499H210.42V37.567Z" fill="white"/>
<path d="M229.198 27.4248C229.198 24.7842 227.356 22.6493 224.631 22.6493C221.822 22.6493 220.023 24.7842 220.023 27.4248C220.023 30.1496 221.822 32.3287 224.631 32.3287C227.356 32.3287 229.198 30.1496 229.198 27.4248ZM235.612 27.3851C235.612 33.5863 231.044 38.1941 224.631 38.1941C218.178 38.1941 213.569 33.5863 213.569 27.3851C213.569 21.2655 218.178 16.7817 224.631 16.7817C231.044 16.7817 235.612 21.2655 235.612 27.3851Z" fill="white"/>
<path d="M135.045 58.8922V70.5013H128.255V59.9826C128.255 57.0914 126.832 55.7084 124.611 55.7084C123.563 55.7084 122.516 56.1696 121.511 57.3839C121.553 57.8865 121.596 58.3892 121.596 58.8922V70.5013H114.805V59.9826C114.805 57.0914 113.38 55.7084 111.157 55.7084C110.154 55.7084 109.105 56.2097 108.144 57.4669V70.5013H101.312V50.1784H108.144V51.3487C109.482 50.1784 110.907 49.5487 113.128 49.5487C115.684 49.5487 117.865 50.5111 119.414 52.3125C121.553 50.3862 123.605 49.5487 126.622 49.5487C131.481 49.5487 135.045 53.1098 135.045 58.8922Z" fill="white"/>
<path d="M153.663 63.4607V57.132C152.365 55.7084 150.939 55.2477 149.474 55.2477C146.708 55.2477 144.653 57.5101 144.653 60.3193C144.653 63.1258 146.708 65.3454 149.474 65.3454C150.939 65.3454 152.365 64.9262 153.663 63.4607ZM160.453 70.5013H153.663V69.3681C152.157 70.3326 150.355 70.92 148.09 70.92C142.6 70.92 137.991 66.3506 137.991 60.3193C137.991 54.2407 142.6 49.7146 148.09 49.7146C150.355 49.7146 152.157 50.3002 153.663 51.2653V50.1784H160.453V70.5013Z" fill="white"/>
<path d="M171.02 66.7124V70.7355H164.19V40.9818H171.02V57.9946L178.058 50.4113H186.145L178.435 58.709L186.816 70.7355H178.687L173.825 63.6941L171.02 66.7124Z" fill="white"/>
<path d="M192.984 58.3476H201.24C200.863 56.1267 199.395 54.9538 197.216 54.9538C194.911 54.9538 193.488 56.297 192.984 58.3476ZM207.481 62.3271H193.026C193.568 64.1716 194.994 65.5974 197.592 65.5974C199.017 65.5974 200.105 65.0519 200.696 64.1297H207.439C206.435 68.3222 202.542 70.9597 197.511 70.9597C190.847 70.9597 186.406 66.5208 186.406 60.3175C186.406 54.1565 190.721 49.7145 197.259 49.7145C203.125 49.7145 207.611 53.78 207.611 59.8948C207.611 60.6947 207.611 61.5319 207.481 62.3271Z" fill="white"/>
<path d="M224.378 56.2956C221.068 56.4189 218.971 57.2997 217.381 58.8502V70.5003H210.548V50.1775H217.381V52.3555C219.182 50.8053 221.361 49.8417 224.378 49.8417V56.2956Z" fill="white"/>
<path d="M49.6332 3.42558C49.5641 3.42558 49.4971 3.42126 49.4267 3.41264C48.2274 3.2532 47.0008 3.14555 45.783 3.09455C44.9295 3.05915 44.2639 2.33658 44.3007 1.48125C44.3365 0.627693 45.0543 -0.0230637 45.9144 -0.00104523C47.223 0.0542755 48.5433 0.169662 49.8355 0.342033C50.6838 0.45311 51.2794 1.23277 51.1666 2.08157C51.0646 2.85945 50.3986 3.42558 49.6332 3.42558ZM36.0154 3.81977C35.2872 3.81977 34.639 3.30421 34.4964 2.55996C34.3364 1.72023 34.888 0.91037 35.7286 0.749176C36.5954 0.584106 37.4852 0.443161 38.373 0.326553C38.7892 0.272446 39.2071 0.224983 39.6237 0.18261C40.4677 0.0948715 41.2339 0.718971 41.3182 1.56988C41.4055 2.42166 40.7823 3.18107 39.9301 3.26614C39.5451 3.30509 39.1583 3.34869 38.7718 3.40057C37.9443 3.50601 37.1158 3.63955 36.3081 3.79211C36.2104 3.81203 36.1118 3.81977 36.0154 3.81977ZM59.1869 5.85703C59.0014 5.85703 58.8156 5.82372 58.6315 5.75336C57.4945 5.31679 56.3254 4.9279 55.1603 4.5981C54.3375 4.3652 53.8586 3.50822 54.0906 2.68487C54.3253 1.86163 55.1806 1.38534 56.0061 1.6179C57.2594 1.97392 58.517 2.39057 59.7426 2.86078C60.5399 3.16724 60.9393 4.06306 60.632 4.86131C60.3973 5.47799 59.8088 5.85703 59.1869 5.85703ZM26.6204 6.77752C26.0284 6.77752 25.4626 6.43654 25.2055 5.86223C24.855 5.08125 25.2051 4.16551 25.9852 3.81635C27.1802 3.27909 28.4123 2.79163 29.6479 2.36679C30.4543 2.0881 31.3363 2.51936 31.6142 3.32921C31.8926 4.13696 31.4625 5.01818 30.6552 5.29732C29.5074 5.69196 28.3634 6.14314 27.2523 6.64144C27.0453 6.73482 26.8322 6.77752 26.6204 6.77752ZM18.1607 11.8336C17.6961 11.8336 17.2381 11.6262 16.9312 11.2294C16.4104 10.5518 16.5378 9.57971 17.2159 9.05685C18.2497 8.26204 19.3358 7.5023 20.4395 6.80042C21.1625 6.33929 22.119 6.5537 22.5792 7.27583C23.0377 7.99805 22.8243 8.95528 22.1017 9.41376C21.0753 10.0668 20.0657 10.7735 19.1046 11.5142C18.8219 11.7298 18.4909 11.8336 18.1607 11.8336ZM11.0942 18.7051C10.7507 18.7051 10.4049 18.5906 10.1175 18.3576C9.45459 17.817 9.35562 16.8424 9.8954 16.1782C10.7191 15.1652 11.5999 14.1768 12.5139 13.2402C13.1099 12.6274 14.0918 12.6149 14.7029 13.2126C15.3158 13.8086 15.3283 14.7891 14.7327 15.4019C13.8826 16.2736 13.0636 17.1925 12.2978 18.1347C11.9919 18.511 11.5446 18.7051 11.0942 18.7051ZM5.79409 27.0141C5.56677 27.0141 5.33642 26.9647 5.11946 26.8584C4.34891 26.485 4.02824 25.5576 4.40207 24.7901C4.97253 23.6146 5.6022 22.4503 6.27726 21.3275C6.71677 20.5945 7.66928 20.3577 8.40182 20.7986C9.13564 21.2393 9.37291 22.191 8.93296 22.9231C8.30544 23.9668 7.71898 25.0499 7.19001 26.1424C6.92206 26.6942 6.36931 27.0141 5.79409 27.0141ZM84.8903 33.9824C84.214 33.9824 83.5921 33.5338 83.4001 32.8505C83.0709 31.6811 82.6844 30.5099 82.2506 29.3776C81.9476 28.578 82.3487 27.6822 83.1487 27.3783C83.9508 27.0741 84.8427 27.4756 85.1474 28.2756C85.6124 29.4947 86.0282 30.7524 86.3813 32.0125C86.6125 32.8359 86.1332 33.6924 85.3086 33.9236C85.1694 33.9629 85.029 33.9824 84.8903 33.9824ZM2.55236 36.3221C2.44173 36.3221 2.32721 36.3114 2.2157 36.2854C1.38032 36.0996 0.852629 35.2733 1.0389 34.4379C1.32153 33.1613 1.6677 31.8837 2.06445 30.6378C2.32461 29.821 3.1963 29.3706 4.01138 29.6322C4.82559 29.8906 5.27419 30.7627 5.01617 31.5774C4.64667 32.7355 4.32687 33.9237 4.06324 35.1099C3.9029 35.8308 3.26286 36.3221 2.55236 36.3221ZM86.4544 43.8696C85.6293 43.8696 84.9417 43.2162 84.9084 42.3821C84.8604 41.1711 84.7563 39.9425 84.5994 38.7328L84.58 38.5833C84.4684 37.7358 85.0631 36.9566 85.9119 36.8456C86.7573 36.7306 87.5395 37.33 87.6497 38.1784L87.6709 38.343C87.8385 39.6369 87.9523 40.9555 88.0045 42.2572C88.0387 43.1129 87.3735 43.8333 86.5179 43.8679C86.4975 43.8679 86.4755 43.8696 86.4544 43.8696ZM1.55318 46.1311C0.707852 46.1311 0.0172398 45.4527 0.00513893 44.6069C0.000817202 44.377 -0.00134367 44.1501 0.000817202 43.9224C0.000817202 42.8445 0.0397127 41.7489 0.119233 40.6702C0.18233 39.8193 0.916591 39.1767 1.77963 39.2402C2.63318 39.305 3.27322 40.0484 3.20926 40.9001C3.13623 41.9024 3.09647 42.9193 3.09647 43.9232C3.09647 44.1371 3.09906 44.3476 3.10079 44.5581C3.11635 45.4133 2.43179 46.1165 1.57695 46.1311H1.55318ZM85.7054 53.6959C85.6064 53.6959 85.5061 53.6852 85.4059 53.6661C84.5657 53.5019 84.0186 52.6868 84.1841 51.8479C84.4167 50.656 84.5994 49.4395 84.7248 48.2294C84.8125 47.3802 85.5748 46.7514 86.424 46.8486C87.2746 46.9368 87.8935 47.6983 87.8049 48.5492C87.6709 49.8517 87.4746 51.1621 87.2241 52.4448C87.0797 53.1825 86.4315 53.6959 85.7054 53.6959ZM2.83457 55.904C2.1418 55.904 1.50953 55.4354 1.33407 54.731C1.01772 53.4673 0.751501 52.1712 0.547516 50.876C0.414406 50.0311 0.989627 49.2385 1.83626 49.1058C2.68072 48.9688 3.47289 49.5475 3.60687 50.3924C3.79702 51.596 4.04422 52.8022 4.33853 53.9786C4.54728 54.8083 4.04336 55.6503 3.21273 55.8573C3.08652 55.8879 2.95904 55.904 2.83457 55.904ZM82.691 63.0831C82.4767 63.0831 82.2588 63.0369 82.0514 62.9444C81.273 62.59 80.929 61.6716 81.2817 60.892C81.786 59.7856 82.2454 58.6439 82.6474 57.4956C82.9322 56.6891 83.8146 56.2661 84.6219 56.5487C85.4283 56.8301 85.8532 57.7147 85.5705 58.5216C85.1375 59.7559 84.6439 60.9845 84.1007 62.1751C83.8422 62.7456 83.28 63.0831 82.691 63.0831ZM6.32955 65.1187C5.77076 65.1187 5.22967 64.8145 4.95525 64.2838C4.35106 63.1225 3.79314 61.921 3.29786 60.7119C2.97373 59.9214 3.35189 59.0159 4.14319 58.6914C4.93407 58.3682 5.83903 58.7437 6.16359 59.5364C6.62559 60.6604 7.14247 61.7759 7.70472 62.8537C8.09843 63.6143 7.80196 64.5482 7.04393 64.944C6.81618 65.0612 6.57027 65.1187 6.32955 65.1187ZM77.5992 71.5187C77.2693 71.5187 76.934 71.4146 76.6513 71.1968C75.9746 70.6739 75.851 69.6997 76.3747 69.0246C77.1224 68.0597 77.8295 67.0531 78.4838 66.0336C78.9458 65.3123 79.9026 65.1009 80.6247 65.5634C81.3438 66.0254 81.5539 66.9831 81.094 67.7031C80.3905 68.7995 79.6264 69.8825 78.8252 70.9184C78.5196 71.3144 78.0607 71.5187 77.5992 71.5187ZM11.8614 73.2707C11.4274 73.2707 10.9949 73.0884 10.6893 72.7332C9.83231 71.7434 9.01335 70.7045 8.25099 69.6435C7.75226 68.9473 7.90914 67.9801 8.60538 67.4823C9.29858 66.9831 10.2671 67.1399 10.7658 67.8341C11.475 68.8215 12.2373 69.7888 13.033 70.7071C13.5926 71.3562 13.5209 72.3338 12.8727 72.8926C12.5814 73.148 12.2196 73.2707 11.8614 73.2707ZM70.7107 78.5662C70.2587 78.5662 69.8105 78.3704 69.5049 77.9914C68.9669 77.3271 69.0702 76.3513 69.7361 75.8133C70.6783 75.0491 71.6006 74.2327 72.4739 73.3866C73.0872 72.7901 74.067 72.8071 74.6625 73.4185C75.2589 74.0336 75.2438 75.015 74.6292 75.6101C73.6906 76.5207 72.7013 77.3984 71.6831 78.2204C71.3979 78.4534 71.0526 78.5662 70.7107 78.5662ZM19.1223 79.9318C18.8077 79.9318 18.4909 79.8368 18.2164 79.638C17.1563 78.8696 16.1186 78.0471 15.1329 77.1893C14.486 76.6274 14.4198 75.6503 14.9808 75.0042C15.5418 74.3576 16.5206 74.2898 17.1646 74.8507C18.0808 75.6481 19.0471 76.4148 20.0321 77.1279C20.7248 77.6292 20.88 78.5986 20.379 79.2914C20.0752 79.7093 19.6007 79.9318 19.1223 79.9318ZM62.3815 83.8339C61.8054 83.8339 61.2509 83.5089 60.9847 82.9523C60.6161 82.1826 60.9414 81.2564 61.7129 80.8861C62.808 80.361 63.8932 79.7797 64.9365 79.1595C65.672 78.7226 66.6211 78.9625 67.0606 79.6976C67.498 80.4323 67.2563 81.3831 66.5204 81.8213C65.398 82.489 64.2308 83.1157 63.0509 83.6796C62.8365 83.7842 62.608 83.8339 62.3815 83.8339ZM27.7208 84.7501C27.5241 84.7501 27.3206 84.7134 27.1257 84.6313C25.916 84.1278 24.7172 83.5634 23.5632 82.9549C22.8053 82.5569 22.514 81.6203 22.9146 80.8645C23.3126 80.1073 24.2526 79.8182 25.005 80.2145C26.0786 80.7802 27.1931 81.3031 28.3163 81.7716C29.1072 82.1005 29.4811 83.0067 29.1512 83.7972C28.9045 84.3927 28.3267 84.7501 27.7208 84.7501ZM53.0573 87.0259C52.3456 87.0259 51.7038 86.5302 51.5456 85.8042C51.3641 84.9688 51.8948 84.1421 52.7301 83.9636C53.9217 83.7047 55.1131 83.3888 56.2697 83.0283C57.086 82.7768 57.9538 83.2293 58.2102 84.0457C58.4646 84.8621 58.0087 85.7307 57.192 85.9848C55.9477 86.3734 54.6685 86.7113 53.388 86.9888C53.2765 87.0125 53.1663 87.0259 53.0573 87.0259ZM37.2039 87.456C37.1197 87.456 37.0376 87.449 36.9538 87.4361C35.662 87.2252 34.365 86.9546 33.0987 86.6314C32.2699 86.4187 31.7698 85.5738 31.9838 84.7458C32.1946 83.916 33.0404 83.416 33.8676 83.6295C35.0435 83.9307 36.2489 84.1835 37.4481 84.3776C38.2934 84.5124 38.867 85.3098 38.7299 86.1538C38.6072 86.9153 37.9486 87.456 37.2039 87.456ZM43.9679 88.0001C43.7203 88.0001 43.4731 87.997 43.2249 87.9931C42.3711 87.9802 41.6878 87.2757 41.7007 86.42C41.715 85.5652 42.4311 84.9135 43.2743 84.8953C44.4947 84.9165 45.7269 84.8811 46.9351 84.7946C47.7879 84.7385 48.5303 85.375 48.5921 86.2273C48.6547 87.0808 48.0126 87.8233 47.1599 87.8838C46.105 87.9612 45.0332 88.0001 43.9679 88.0001Z" fill="white"/>
<path d="M44.0198 63.6C33.1826 63.6 24.3995 54.816 24.3995 43.9789C24.3995 33.1426 33.1826 24.3595 44.0198 24.3595C54.8548 24.3595 63.6395 33.1426 63.6395 43.9789C63.6395 54.816 54.8548 63.6 44.0198 63.6ZM44.0198 17.3074C29.2895 17.3074 17.3465 29.2483 17.3465 43.9789C17.3465 58.71 29.2895 70.6539 44.0198 70.6539C58.75 70.6539 70.6908 58.71 70.6908 43.9789C70.6908 29.2483 58.75 17.3074 44.0198 17.3074Z" fill="white"/>
<path d="M82.6279 19.3101H79.1679V13.9477C79.1679 12.4727 78.4401 11.7704 77.3096 11.7704C76.7758 11.7704 76.2404 12.0038 75.7282 12.623C75.7495 12.881 75.7697 13.1356 75.7697 13.3911V19.3101H72.3098V13.9477C72.3098 12.4727 71.5841 11.7704 70.4514 11.7704C69.9402 11.7704 69.4047 12.0245 68.9147 12.6676V19.3101H65.4327V8.94871H68.9147V9.54603C69.5958 8.94871 70.3213 8.62808 71.4562 8.62808C72.7589 8.62808 73.87 9.1203 74.6608 10.0374C75.7495 9.05414 76.7962 8.62808 78.3347 8.62808C80.8132 8.62808 82.6279 10.4445 82.6279 13.3911V19.3101ZM74.0303 0.461697C66.5697 0.461697 60.5227 6.50785 60.5227 13.9684C60.5227 21.4299 66.5697 27.4755 74.0303 27.4755C81.4887 27.4755 87.5361 21.4299 87.5361 13.9684C87.5361 6.50785 81.4887 0.461697 74.0303 0.461697Z" fill="white"/>
</g>
<defs>
<clipPath id="clip0_204_2072">
<rect width="235.611" height="88" fill="white"/>
</clipPath>
</defs>
</svg>
