<svg width="139" height="73" viewBox="0 0 139 73" fill="none" xmlns="http://www.w3.org/2000/svg">
<g style="mix-blend-mode:luminosity" opacity="0.6" clip-path="url(#clip0_227_716)">
<path d="M93.7953 28.0342C92.9301 27.3896 91.5743 26.9985 90.2571 27.0206C88.8242 27.0426 87.4575 27.4998 86.5096 28.26V19.2312H82.04V48.6754H86.5096V33.306C86.5096 32.2318 87.4079 31.053 89.0722 30.9813C89.8163 30.9483 90.8413 31.2733 91.3649 32.05C91.9215 32.8763 91.8884 33.9726 91.8884 35.168L91.8829 48.6699H96.3525V35.0027C96.347 30.9703 95.8234 29.5325 93.7953 28.0342ZM57.4548 38.1427C57.4548 41.0238 57.3611 41.8336 57.339 42.087C57.1847 43.6845 56.5013 45.3757 54.6386 45.3757C52.7813 45.3757 52.0263 43.5688 51.9436 42.0098C51.9381 41.9988 51.8279 41.0238 51.8279 38.1427C51.8279 35.2561 51.9436 34.0552 51.9436 34.0442C51.9657 32.4191 52.8089 30.7885 54.6386 30.7885C56.4683 30.7885 57.3115 32.4136 57.339 34.0222C57.3445 34.0552 57.4548 35.2561 57.4548 38.1427ZM61.781 34.6667C61.1472 28.3702 57.5705 27.0206 54.6386 27.0206C50.4776 27.0206 47.948 29.6648 47.4906 34.6557C47.452 35.0523 47.3914 35.785 47.3694 38.1372C47.3528 39.8504 47.463 41.2496 47.4851 41.6077C47.7662 46.2681 50.4501 49.1437 54.6386 49.1437C58.8326 49.1437 61.5 46.224 61.792 41.6077C61.8141 41.2772 61.9078 39.8504 61.9078 38.1372C61.9078 37.366 61.8361 35.2561 61.781 34.6667ZM103.804 35.493C103.837 34.518 103.837 34.3141 103.859 34.0332C103.985 32.2704 104.774 30.8106 106.581 30.794C108.725 30.7775 109.227 32.8763 109.304 34.0387C109.342 34.6502 109.386 35.0578 109.381 35.493H103.804ZM109.326 41.3929C109.326 41.3929 109.331 41.7234 109.282 42.12C109.155 43.1612 108.747 45.3812 106.57 45.3812C104.718 45.3812 104.002 43.701 103.881 42.0209C103.859 41.5471 103.77 41.0128 103.776 39.2059H113.74C113.74 39.2059 113.757 37.724 113.729 36.8316C113.713 36.4791 113.696 35.9006 113.613 34.6722C113.476 32.7827 112.77 30.7224 111.69 29.3838C110.439 27.8414 108.67 27.0261 106.576 27.0261C102.553 27.0261 100.034 29.6482 99.5434 34.6667C99.4993 35.1184 99.4277 35.7409 99.4277 38.1482C99.4277 39.8614 99.5269 41.2937 99.5434 41.6187C99.8135 46.202 102.525 49.1547 106.581 49.1547C110.626 49.1547 113.338 46.2846 113.624 41.3984L109.326 41.3929Z" fill="#007AC2"/>
<path d="M33.2332 4.20332H105.843L133.613 36.6773L105.854 68.7052H33.2332L5.36334 36.5672L33.2332 4.20332ZM107.601 0.595093H31.4807L0.596191 36.4515L31.4862 72.082H107.601L138.375 36.5672L107.601 0.595093Z" fill="#007AC2"/>
<path d="M34.1316 23.2251H36.2479C38.546 23.2251 39.7915 24.4425 39.8466 26.6184C39.8522 26.7782 39.8687 26.96 39.8687 27.296C39.8687 27.6926 39.8632 27.8359 39.8466 27.9846C39.7199 29.2792 39.1522 31.5322 36.4573 31.5322H34.1261L34.1316 23.2251ZM44.713 46.8465L44.2556 39.6191C44.0572 36.3854 43.214 34.4794 41.5386 33.5044C42.7455 32.7772 44.3107 30.9814 44.2941 27.2299C44.2721 21.5118 40.7229 19.5067 36.5455 19.4626H29.7227V48.6699H34.1316V35.3057H36.584C38.0059 35.3057 39.6042 36.5452 39.8466 40.0322L40.3041 46.8741C40.3426 47.8436 40.5245 48.6699 40.5245 48.6699H44.9389C44.9445 48.6754 44.7516 47.8656 44.713 46.8465ZM74.8314 41.1891C74.8149 41.5086 74.7929 41.8005 74.7763 42.0099C74.6496 43.6404 74.0764 45.3757 72.0814 45.3757C70.2186 45.3757 69.4856 43.4972 69.3478 42.109C69.2652 41.2662 69.2872 40.6161 69.2707 38.1427C69.2486 35.2561 69.3423 34.5125 69.3864 34.0442C69.5462 32.2208 70.2517 30.8051 72.0814 30.7941C73.9662 30.783 74.7543 32.4191 74.7763 34.0277C74.7763 34.0442 74.8149 34.4353 74.8425 35.2892H79.2624C79.2459 34.9917 79.2348 34.7493 79.2238 34.6061C78.7223 28.5024 75.0023 27.0261 72.0704 27.0261C67.9149 27.0261 65.3798 29.6703 64.9224 34.6612C64.8838 35.0578 64.8232 35.7905 64.8011 38.1427C64.7791 39.8559 64.8893 41.2552 64.9169 41.6132C65.2035 46.2736 67.8819 49.1382 72.0704 49.1492C76.4131 49.1657 78.8105 46.516 79.2238 41.6132C79.2348 41.4369 79.2624 41.3102 79.2514 41.1891H74.8314Z" fill="#007AC2"/>
</g>
<defs>
<clipPath id="clip0_227_716">
<rect width="138.971" height="72.6784" fill="white"/>
</clipPath>
</defs>
</svg>
