<svg width="102" height="104" viewBox="0 0 102 104" fill="none" xmlns="http://www.w3.org/2000/svg">
<g style="mix-blend-mode:luminosity" opacity="0.6">
<path d="M50.8333 102.96C78.3545 102.96 100.658 80.1461 100.658 52.0037C100.658 23.8613 78.3545 1.03955 50.8333 1.03955C23.3203 1.03955 1.01709 23.8613 1.01709 52.0037C1.01709 80.1461 23.3203 102.96 50.8333 102.96Z" fill="white"/>
<path d="M62.0134 38.7312C62.0134 32.9364 65.8486 27.3162 67.941 28.3749C70.3263 29.598 66.1536 35.0559 62.0134 38.7312ZM35.934 40.8424C35.934 36.1832 40.428 27.3308 43.1732 28.2668C46.4187 29.3733 40.485 38.3028 35.934 40.8424ZM31.377 74.164C29.311 74.2597 27.9282 72.9077 27.9282 70.6509C27.9282 64.5877 36.1536 58.7949 42.3659 55.6853C41.2638 64.1509 38.4677 73.8375 31.377 74.164ZM69.3258 54.4061C64.6346 54.4061 61.0496 57.9359 61.0496 62.1687C61.0496 65.6984 63.1237 68.521 65.875 68.521C66.8491 68.521 67.8129 67.9532 67.8129 66.6927C67.8129 64.8477 65.4338 64.4047 65.6127 61.6612C65.7327 59.8516 67.4001 58.641 69.0554 58.641C72.3639 58.641 73.9113 61.9212 73.9113 65.3053C73.7771 70.5324 70.0152 74.162 65.6066 74.162C59.8071 74.162 56.0818 68.521 56.0818 62.4495C56.0818 53.4098 61.8813 49.8821 64.9193 49.0397C64.9477 49.0397 72.8539 50.477 72.6079 46.9119C72.494 45.3436 70.2145 44.7404 68.5673 44.6759C66.7352 44.6031 64.8847 45.277 64.8847 45.277C63.9249 44.7778 63.2579 43.8023 62.8451 42.6791C68.5043 38.2986 72.5062 34.0679 72.5062 29.2672C72.5062 26.7276 70.8469 24.4687 67.6726 24.4687C62.0134 24.4687 57.735 31.809 57.735 38.4442C57.735 39.5695 57.735 40.7031 58.0197 41.689C54.4285 44.368 51.7586 46.0383 46.9331 49.0023C46.9331 48.3845 47.0592 46.7892 47.4659 44.7258C49.1191 42.8892 51.3905 40.1373 51.3905 38.0178C51.3905 37.0319 50.8435 36.1812 49.7292 36.1812C46.9738 36.1812 44.9078 40.4202 44.3547 43.3842C43.1122 44.9442 40.6273 46.9202 38.5531 46.9202C36.8999 46.9202 36.3448 45.3664 36.2045 44.7986C41.4509 42.962 47.9377 35.6216 47.9377 28.9864C47.9377 27.5783 47.3846 24.4687 43.2464 24.4687C37.0362 24.4687 31.7979 33.9306 31.7979 41.2626C29.5835 41.2626 28.7599 38.8664 28.7599 37.0298C28.7599 35.1911 29.4492 33.3628 29.4492 32.7949C29.4492 32.2292 29.1727 31.5261 28.341 31.5261C26.275 31.5261 25.0325 34.3487 25.0325 37.5956C25.1749 42.1133 28.0705 44.9442 31.9321 45.2208C32.4852 47.9061 34.8278 50.4479 37.7235 50.4479C39.5211 50.4479 41.7274 49.8821 43.2464 48.474C43.1122 49.4599 42.978 50.3106 42.8357 51.153C36.7596 54.4061 32.3429 56.6629 28.341 60.332C25.1749 63.3002 23.3793 67.2501 23.3793 70.3514C23.3793 74.5925 25.9984 78.5424 31.379 78.5424C37.7235 78.5424 42.5591 73.3216 44.9078 66.1186C46.0079 62.7344 46.4492 57.8048 46.7318 53.2808C53.0722 49.6055 56.0818 47.488 59.3963 45.0836C59.8091 45.7887 60.226 46.3524 60.773 46.7746C57.8773 48.3284 50.9777 52.7068 50.9777 63.009C50.9777 70.3493 55.8032 78.5404 65.3321 78.5404C73.1976 78.5404 78.5782 71.9031 78.5782 65.5487C78.5761 59.7663 75.4019 54.4061 69.3258 54.4061ZM93.0545 66.5325C93.0342 66.5762 92.9569 66.6344 92.8004 66.5824C92.6784 66.5388 92.6519 66.4805 92.6519 66.3994C92.658 66.3204 94.3194 61.2951 94.3051 55.5376C94.2909 49.3143 91.8222 45.5016 88.6561 45.5016C86.7182 45.5016 85.3395 46.9181 85.3395 49.0397C85.3395 52.8503 89.8904 53.1352 89.8904 61.4615C89.8904 64.8456 89.2011 68.0925 88.103 71.6202C82.9908 89.2628 66.7067 97.4538 50.8435 97.4538C43.525 97.4538 38.3274 95.9146 36.782 95.2053C36.7189 95.1679 36.66 95.0452 36.7108 94.9204C36.7454 94.8268 36.8532 94.754 36.9162 94.7831C37.5425 95.0306 42.006 96.4679 47.5289 96.4679C53.5989 96.4679 57.19 93.9282 57.19 90.8186C57.19 88.8447 55.671 87.2909 53.7412 87.2909C50.0139 87.2909 49.7312 92.0895 41.7294 92.0895C38.2807 92.0895 35.2426 91.3844 31.6576 90.2508C14.5398 84.8885 6.39158 68.3775 6.39768 52.0037C6.40379 44.0248 8.59181 37.6704 8.62638 37.6122C8.65485 37.5706 8.75246 37.5248 8.87243 37.5706C8.99444 37.6122 9.02088 37.7141 9.01478 37.7516C8.81753 38.413 7.36766 42.9661 7.36766 48.6154C7.36766 54.8304 9.85054 58.4975 13.0248 58.4975C14.8143 58.4975 16.3333 57.0893 16.3333 55.1133C16.3333 51.2965 11.7762 50.8743 11.7762 42.6853C11.7762 39.1556 12.4717 36.048 13.5718 32.381C18.8182 14.8757 34.9681 6.67219 50.8394 6.54531C58.2149 6.48707 64.6671 8.74595 64.9152 8.94771C64.9579 8.98515 65.0006 9.08083 64.9579 9.19523C64.8989 9.33251 64.8135 9.34707 64.7729 9.33875C64.6956 9.33251 60.4985 7.53747 54.1459 7.53747C48.2122 7.53123 44.4848 10.073 44.4848 13.324C44.4848 15.1544 45.8696 16.7082 47.9336 16.7082C51.661 16.7082 51.9375 12.0532 59.9454 12.0532C63.386 12.0532 66.4261 12.75 70.0111 13.8836C87.2673 19.2479 95.1185 35.9045 95.267 52.0016C95.3483 60.2447 93.0769 66.4805 93.0545 66.5325ZM50.8415 3.44195C24.6197 3.44195 3.3678 25.1738 3.3678 52.0016C3.3678 78.8232 24.6197 100.555 50.8415 100.555C77.0571 100.555 98.3091 78.8232 98.3091 52.0016C98.3091 25.3194 77.0571 3.44195 50.8415 3.44195ZM50.8415 102.96C23.3773 102.96 1.01709 80.2335 1.01709 52.0037C1.01709 23.9029 23.3773 1.03955 50.8415 1.03955C78.2976 1.03955 100.658 23.9029 100.658 52.0037C100.658 80.2335 78.2976 102.96 50.8415 102.96Z" fill="#3B73B9"/>
</g>
</svg>
