<svg width="229" height="49" viewBox="0 0 229 49" fill="none" xmlns="http://www.w3.org/2000/svg">
<g style="mix-blend-mode:luminosity" opacity="0.6" clip-path="url(#clip0_227_724)">
<path d="M94.8491 9.73062V38.9236H89.7824V16.0152H89.7148L80.6623 38.9236H77.2845L68.0292 16.0152H67.9617V38.9236H63.3003V9.73062H70.5964L78.9734 31.3551H79.1085L87.9584 9.73062H94.8491ZM99.0376 11.9606C99.0376 11.1497 99.3078 10.474 99.9158 9.93335C100.524 9.39274 101.199 9.12243 102.01 9.12243C102.888 9.12243 103.631 9.39274 104.172 9.93335C104.712 10.474 105.05 11.1497 105.05 11.9606C105.05 12.7716 104.78 13.4473 104.172 13.9879C103.564 14.5285 102.888 14.7988 102.01 14.7988C101.132 14.7988 100.456 14.5285 99.9158 13.9879C99.3754 13.3797 99.0376 12.704 99.0376 11.9606ZM104.51 17.9749V38.9236H99.578V17.9749H104.51ZM119.44 35.3421C120.183 35.3421 120.993 35.2069 121.872 34.8014C122.75 34.4636 123.561 33.9905 124.304 33.4499V38.0451C123.493 38.5181 122.615 38.856 121.601 39.0588C120.588 39.2615 119.507 39.3966 118.291 39.3966C115.184 39.3966 112.684 38.4506 110.792 36.4909C108.833 34.5311 107.887 32.0308 107.887 29.0575C107.887 25.6786 108.901 22.908 110.86 20.7456C112.819 18.5831 115.589 17.5019 119.237 17.5019C120.183 17.5019 121.129 17.6371 122.007 17.8398C122.953 18.0425 123.696 18.3804 124.236 18.6507V23.381C123.493 22.8404 122.682 22.3674 121.939 22.0971C121.129 21.8268 120.318 21.6241 119.507 21.6241C117.548 21.6241 115.994 22.2322 114.778 23.5162C113.562 24.8001 113.022 26.4896 113.022 28.652C113.022 30.7469 113.63 32.4363 114.778 33.5851C115.927 34.7339 117.48 35.3421 119.44 35.3421ZM138.288 17.6371C138.693 17.6371 139.031 17.6371 139.369 17.7046C139.707 17.7722 139.977 17.8398 140.179 17.9074V22.908C139.909 22.7053 139.571 22.5025 139.031 22.3674C138.49 22.2322 137.95 22.0971 137.207 22.0971C135.991 22.0971 134.978 22.6377 134.167 23.6513C133.356 24.665 132.883 26.2192 132.883 28.3817V38.9236H127.952V17.9749H132.883V21.2862H132.951C133.424 20.1374 134.099 19.2589 134.978 18.5831C135.923 17.9749 137.004 17.6371 138.288 17.6371ZM140.45 28.7871C140.45 25.3408 141.463 22.5701 143.355 20.5428C145.314 18.5155 148.016 17.5019 151.461 17.5019C154.704 17.5019 157.271 18.448 159.095 20.4077C160.919 22.3674 161.865 25.0029 161.865 28.3141C161.865 31.6929 160.852 34.396 158.96 36.4233C157.001 38.4506 154.366 39.4642 150.988 39.4642C147.746 39.4642 145.179 38.5181 143.287 36.626C141.395 34.6663 140.45 32.0308 140.45 28.7871ZM145.584 28.5844C145.584 30.7469 146.057 32.4363 147.07 33.5851C148.083 34.7339 149.502 35.3421 151.326 35.3421C153.083 35.3421 154.501 34.8014 155.447 33.5851C156.393 32.4363 156.866 30.7469 156.866 28.4493C156.866 26.2192 156.393 24.5298 155.447 23.3135C154.501 22.1647 153.083 21.5565 151.394 21.5565C149.57 21.5565 148.219 22.1647 147.205 23.381C146.057 24.665 145.584 26.3544 145.584 28.5844ZM169.229 23.5162C169.229 24.192 169.431 24.8001 169.904 25.2056C170.377 25.6111 171.323 26.0841 172.877 26.6923C174.836 27.5032 176.254 28.3817 176.998 29.3278C177.808 30.3414 178.214 31.4902 178.214 32.9093C178.214 34.869 177.47 36.4233 175.917 37.6397C174.43 38.856 172.336 39.3966 169.769 39.3966C168.891 39.3966 167.945 39.2615 166.864 39.0588C165.783 38.856 164.905 38.5857 164.162 38.2478V33.3823C165.04 33.9905 166.053 34.5311 167.067 34.869C168.08 35.2069 169.026 35.4096 169.904 35.4096C170.985 35.4096 171.863 35.2745 172.336 34.9366C172.877 34.5987 173.147 34.1257 173.147 33.3823C173.147 32.7066 172.877 32.166 172.336 31.6254C171.796 31.1523 170.715 30.6117 169.229 30.0035C167.405 29.2602 166.121 28.3817 165.378 27.4356C164.635 26.4896 164.229 25.2732 164.229 23.7865C164.229 21.8944 164.973 20.3401 166.459 19.1237C167.945 17.9074 169.904 17.2992 172.269 17.2992C173.012 17.2992 173.822 17.3667 174.701 17.5695C175.579 17.7722 176.39 17.9749 176.998 18.1777V22.9756C176.322 22.5701 175.579 22.1647 174.701 21.8268C173.822 21.4889 172.944 21.3538 172.134 21.3538C171.188 21.3538 170.445 21.5565 169.972 21.8944C169.499 22.3674 169.229 22.8404 169.229 23.5162ZM180.308 28.7871C180.308 25.3408 181.321 22.5701 183.213 20.5428C185.172 18.5155 187.874 17.5019 191.32 17.5019C194.562 17.5019 197.129 18.448 198.953 20.4077C200.777 22.3674 201.723 25.0029 201.723 28.3141C201.723 31.6929 200.71 34.396 198.818 36.4233C196.859 38.4506 194.224 39.4642 190.847 39.4642C187.604 39.4642 185.037 38.5181 183.145 36.626C181.321 34.6663 180.308 32.0308 180.308 28.7871ZM185.442 28.5844C185.442 30.7469 185.915 32.4363 186.928 33.5851C187.942 34.7339 189.36 35.3421 191.184 35.3421C192.941 35.3421 194.36 34.8014 195.305 33.5851C196.251 32.4363 196.724 30.7469 196.724 28.4493C196.724 26.2192 196.251 24.5298 195.305 23.3135C194.36 22.1647 192.941 21.5565 191.252 21.5565C189.428 21.5565 188.077 22.1647 187.063 23.381C185.983 24.665 185.442 26.3544 185.442 28.5844ZM218.139 22.0295H210.776V38.9236H205.777V22.0295H202.264V17.9749H205.777V15.0692C205.777 12.9067 206.52 11.0821 207.938 9.66304C209.357 8.24394 211.181 7.56818 213.41 7.56818C214.018 7.56818 214.559 7.63575 215.032 7.63575C215.505 7.63575 215.91 7.77091 216.248 7.90606V12.1634C216.113 12.0958 215.775 11.9606 215.37 11.8255C214.964 11.6903 214.491 11.6228 213.951 11.6228C212.938 11.6228 212.127 11.9606 211.586 12.5688C211.046 13.177 210.776 14.1907 210.776 15.407V17.9074H218.139V13.177L223.071 11.6903V17.9074H228.07V21.9619H223.071V31.7605C223.071 33.0445 223.341 33.923 223.747 34.4636C224.219 35.0042 224.963 35.2745 225.976 35.2745C226.246 35.2745 226.584 35.2069 226.989 35.0718C227.395 34.9366 227.732 34.8014 228.003 34.5987V38.6533C227.665 38.856 227.192 38.9912 226.449 39.1263C225.706 39.2615 225.03 39.3291 224.287 39.3291C222.193 39.3291 220.639 38.7884 219.626 37.7072C218.612 36.626 218.072 34.9366 218.072 32.7066L218.139 22.0295Z" fill="#737373"/>
<path d="M23.1043 -0.000366211H0V23.1107H23.1043V-0.000366211Z" fill="#F25022"/>
<path d="M48.6409 -0.000366211H25.5366V23.1107H48.6409V-0.000366211Z" fill="#7FBA00"/>
<path d="M23.1043 25.5435H0V48.6546H23.1043V25.5435Z" fill="#00A4EF"/>
<path d="M48.6409 25.5435H25.5366V48.6546H48.6409V25.5435Z" fill="#FFB900"/>
</g>
<defs>
<clipPath id="clip0_227_724">
<rect width="228.07" height="48.655" fill="white"/>
</clipPath>
</defs>
</svg>
