<svg width="147" height="80" viewBox="0 0 147 80" fill="none" xmlns="http://www.w3.org/2000/svg">
<g style="mix-blend-mode:luminosity" opacity="0.6" clip-path="url(#clip0_227_730)">
<path opacity="0.997" fill-rule="evenodd" clip-rule="evenodd" d="M56.307 -0.0179443C71.7541 -0.0179443 87.2008 -0.0179443 102.648 -0.0179443C102.085 2.8288 101.512 5.67379 100.93 8.517C85.4831 8.55271 70.0364 8.56461 54.5894 8.55271C55.1573 5.6949 55.7298 2.83802 56.307 -0.0179443Z" fill="#1D66C3"/>
<path opacity="0.997" fill-rule="evenodd" clip-rule="evenodd" d="M53.4799 13.2308C68.9269 13.2308 84.3736 13.2308 99.8207 13.2308C99.2664 16.0794 98.6939 18.9244 98.1031 21.7657C82.656 21.8014 67.2093 21.8133 51.7622 21.8014C52.3301 18.9436 52.9027 16.0867 53.4799 13.2308Z" fill="#1D66C3"/>
<path opacity="0.996" fill-rule="evenodd" clip-rule="evenodd" d="M50.7246 26.8731C55.4481 26.8671 60.1717 26.8731 64.8952 26.8909C66.2747 26.9928 67.5394 27.4213 68.6884 28.1765C70.1953 29.3419 70.7979 30.8715 70.4955 32.7654C70.1538 34.8479 69.0863 36.4369 67.2928 37.5328C66.1677 38.1771 64.9747 38.6531 63.7144 38.9613C64.9843 39.1609 66.1413 39.6252 67.1854 40.354C67.9967 41.0143 68.4798 41.8657 68.6347 42.9074C68.8519 45.3164 68.1244 47.3877 66.4519 49.1211C64.7879 50.7667 62.7782 51.6773 60.4222 51.853C59.6135 51.9458 58.8026 52.0051 57.9888 52.0315C53.7781 52.0494 49.5677 52.0555 45.3569 52.0494C47.1279 43.6534 48.9171 35.2612 50.7246 26.8731ZM56.6648 31.3727C58.1202 31.3667 59.5752 31.3727 61.0305 31.3905C62.6312 31.4876 63.3529 32.3268 63.1955 33.9082C62.7818 36.0294 61.4875 37.0354 59.3129 36.9258C58.0364 36.9554 56.76 36.9497 55.4839 36.9079C55.8912 35.0656 56.2848 33.2206 56.6648 31.3727ZM54.5178 41.4432C55.9015 41.4371 57.285 41.4432 58.6687 41.4611C61.2846 41.6325 62.1015 42.9359 61.12 45.3714C60.5696 46.4431 59.6929 47.0802 58.4898 47.282C58.1939 47.3377 57.8958 47.3734 57.5952 47.3891C56.152 47.407 54.7085 47.413 53.2653 47.407C53.6872 45.42 54.1048 43.432 54.5178 41.4432Z" fill="#1D65C4"/>
<path opacity="0.994" fill-rule="evenodd" clip-rule="evenodd" d="M-0.0175781 46.6571C-0.0175781 46.1811 -0.0175781 45.7047 -0.0175781 45.2287C0.0533742 44.7691 0.124943 44.3048 0.197129 43.8359C2.54698 43.8359 4.89681 43.8359 7.24667 43.8359C6.72232 46.0582 7.59306 47.2903 9.85893 47.532C10.9368 47.6474 11.9865 47.5285 13.008 47.1749C14.2731 46.6217 14.953 45.6518 15.0477 44.2645C15.0105 43.6127 14.7004 43.1424 14.1173 42.8539C13.8752 42.7375 13.6247 42.6425 13.3658 42.5682C11.2052 42.0025 9.04626 41.4311 6.88882 40.854C2.92546 39.6034 1.66704 37.0265 3.11356 33.1226C3.67935 31.7491 4.54415 30.6004 5.70793 29.6765C7.45869 28.3216 9.43875 27.4824 11.6482 27.1589C13.5022 26.8913 15.363 26.8377 17.2305 26.9982C18.3605 27.0904 19.4579 27.3284 20.5227 27.7124C23.1082 28.7588 24.1877 30.6694 23.7612 33.444C23.7071 33.8274 23.6415 34.2083 23.5644 34.5868C21.2026 34.5868 18.8408 34.5868 16.4791 34.5868C16.5138 34.336 16.5555 34.0861 16.6043 33.8368C16.7786 32.4156 16.1643 31.5764 14.7614 31.3192C13.4078 31.0945 12.1792 31.3802 11.0756 32.1763C10.3024 32.8242 9.96245 33.6515 10.0557 34.6582C10.1506 35.0268 10.3474 35.3303 10.6462 35.5688C10.8868 35.7484 11.1492 35.8913 11.4334 35.9973C13.3253 36.5259 15.2219 37.0376 17.1232 37.5329C18.2986 37.8404 19.4199 38.2811 20.4869 38.8542C21.8192 39.7274 22.4872 40.9655 22.4908 42.5682C22.3237 45.9993 20.7492 48.5466 17.7673 50.2104C15.4883 51.371 13.0669 51.9781 10.503 52.0316C8.75874 52.1177 7.02917 51.9984 5.3143 51.6745C4.0023 51.4302 2.8214 50.9064 1.77164 50.1032C0.725085 49.1869 0.128678 48.038 -0.0175781 46.6571Z" fill="#1D65C4"/>
<path opacity="0.996" fill-rule="evenodd" clip-rule="evenodd" d="M28.5744 26.9441C34.9679 26.9441 41.3612 26.9441 47.7548 26.9441C47.4263 28.5523 47.0924 30.1593 46.7529 31.7651C42.6974 31.7651 38.6416 31.7651 34.5861 31.7651C34.2072 33.5011 33.8375 35.239 33.4768 36.9789C37.2818 36.9789 41.0871 36.9789 44.8921 36.9789C44.5507 38.587 44.2046 40.194 43.8543 41.7999C40.0372 41.7881 36.2201 41.7999 32.4033 41.8356C32.0237 43.6047 31.642 45.3724 31.2582 47.1387C35.4092 47.1448 39.5602 47.1626 43.7112 47.1923C43.3533 48.7993 42.9955 50.4063 42.6376 52.0133C36.1488 52.0608 29.6598 52.0608 23.1709 52.0133C24.9812 43.6587 26.7824 35.3023 28.5744 26.9441Z" fill="#1D65C4"/>
<path opacity="0.995" fill-rule="evenodd" clip-rule="evenodd" d="M74.8795 26.9443C79.5913 26.9384 84.3026 26.9443 89.0144 26.9622C90.2883 26.9261 91.5171 27.1403 92.7002 27.605C94.1849 28.3509 94.99 29.5592 95.1156 31.2296C95.2083 35.7196 93.0552 38.4279 88.6565 39.3539C88.2654 39.4393 87.8718 39.5107 87.4757 39.5682C87.4252 39.5814 87.3894 39.611 87.3683 39.6575C88.1556 39.6939 88.9306 39.8067 89.6943 39.9967C91.0448 40.352 91.7784 41.227 91.895 42.6215C91.9315 42.9775 91.9494 43.3346 91.9487 43.6928C91.8682 45.4312 91.7787 47.1689 91.6803 48.9066C91.6463 49.9197 91.6581 50.9314 91.7161 51.9421C96.8601 43.6632 101.995 35.3781 107.121 27.0872C110.02 27.0514 112.918 27.0396 115.817 27.0514C117.354 35.3866 118.904 43.7192 120.469 52.0492C117.797 52.061 115.125 52.0492 112.453 52.0135C112.218 50.3604 111.991 48.7059 111.773 47.0497C108.374 47.0379 104.974 47.0497 101.575 47.0854C100.64 48.7313 99.7093 50.3797 98.7835 52.0313C93.8571 52.0492 88.931 52.0553 84.0046 52.0492C83.9974 51.3939 84.0153 50.739 84.0582 50.0851C84.2264 48.181 84.3875 46.2765 84.5413 44.3713C84.5617 43.8724 84.4486 43.4082 84.2014 42.9786C83.9691 42.699 83.6768 42.5143 83.3247 42.4251C83.018 42.3544 82.7081 42.3065 82.3943 42.2822C81.7859 42.2762 81.1776 42.2704 80.5693 42.2644C79.947 42.2647 79.3329 42.2883 78.7264 42.3358C78.0218 45.5726 77.324 48.8106 76.633 52.0492C74.2472 52.061 71.8615 52.0492 69.4761 52.0135C71.2886 43.6592 73.0896 35.303 74.8795 26.9443ZM81.0345 31.5868C82.4068 31.5733 83.7784 31.5912 85.1497 31.6403C85.6642 31.6664 86.1652 31.7616 86.6526 31.926C87.476 32.2769 87.8933 32.9019 87.9051 33.8008C87.7354 36.3453 86.3756 37.6366 83.8256 37.6755C82.4658 37.6933 81.106 37.6994 79.7462 37.6933C80.1756 35.6578 80.605 33.6223 81.0345 31.5868ZM110.02 31.9796C110.056 31.9796 110.091 31.9796 110.127 31.9796C110.456 35.4559 110.79 38.9318 111.129 42.4072C108.839 42.4133 106.549 42.4072 104.259 42.3894C106.203 38.9318 108.123 35.4619 110.02 31.9796Z" fill="#1D65C4"/>
<path opacity="0.996" fill-rule="evenodd" clip-rule="evenodd" d="M146.556 26.9441C146.556 27.0036 146.556 27.0631 146.556 27.1226C146.211 28.6637 145.877 30.2112 145.554 31.7651C141.498 31.7651 137.442 31.7651 133.387 31.7651C133.017 33.503 132.647 35.2409 132.278 36.9789C136.083 36.9789 139.888 36.9789 143.693 36.9789C143.365 38.5777 143.019 40.1729 142.655 41.7642C138.838 41.7999 135.021 41.8117 131.204 41.7999C130.825 43.5837 130.455 45.3692 130.095 47.1566C134.234 47.1566 138.373 47.1566 142.512 47.1566C142.166 48.7846 141.808 50.4095 141.438 52.0311C134.95 52.055 128.46 52.055 121.972 52.0311C123.789 43.6729 125.59 35.3107 127.375 26.9441C133.769 26.9441 140.162 26.9441 146.556 26.9441Z" fill="#1D65C4"/>
<path opacity="0.997" fill-rule="evenodd" clip-rule="evenodd" d="M44.2123 57.2274C59.6594 57.2274 75.1061 57.2274 90.5531 57.2274C89.9899 60.0742 89.4173 62.919 88.8355 65.7623C73.3884 65.798 57.9417 65.8098 42.4946 65.798C43.0625 62.9401 43.6351 60.0832 44.2123 57.2274Z" fill="#1D66C3"/>
<path opacity="0.997" fill-rule="evenodd" clip-rule="evenodd" d="M86.0083 79.0467C70.5613 79.0467 55.1146 79.0467 39.6675 79.0467C40.2354 76.1888 40.8079 73.3319 41.3851 70.4761C56.8322 70.4761 72.2789 70.4761 87.726 70.4761C87.167 73.3358 86.5945 76.1927 86.0083 79.0467Z" fill="#1D66C3"/>
</g>
<defs>
<clipPath id="clip0_227_730">
<rect width="146.573" height="79.0643" fill="white"/>
</clipPath>
</defs>
</svg>
